<svg width="48" height="48" viewBox="0 0 48 48" fill="none" xmlns="http://www.w3.org/2000/svg">
<path d="M26.52 21H30.52V23H26.52V21Z" fill="#111111"/>
<path d="M40 8H8C6.93913 8 5.92172 8.42143 5.17157 9.17157C4.42143 9.92172 4 10.9391 4 12V36C4 37.0609 4.42143 38.0783 5.17157 38.8284C5.92172 39.5786 6.93913 40 8 40H40C41.0609 40 42.0783 39.5786 42.8284 38.8284C43.5786 38.0783 44 37.0609 44 36V12C44 10.9391 43.5786 9.92172 42.8284 9.17157C42.0783 8.42143 41.0609 8 40 8ZM16.8 30L16 27.54H12.12L11.24 30H8L12.4 18H15.64L20 30H16.8ZM33.52 23C33.5282 23.3962 33.4562 23.79 33.3083 24.1576C33.1604 24.5253 32.9397 24.8593 32.6595 25.1395C32.3793 25.4197 32.0453 25.6404 31.6776 25.7883C31.31 25.9362 30.9162 26.0082 30.52 26H26.52V30H23.52V18H30.52C30.9162 17.9918 31.31 18.0638 31.6776 18.2117C32.0453 18.3596 32.3793 18.5803 32.6595 18.8605C32.9397 19.1407 33.1604 19.4747 33.3083 19.8424C33.4562 20.21 33.5282 20.6038 33.52 21V23ZM40 30H37V18H40V30Z" fill="#111111"/>
<path d="M12.8599 25.54H15.1799L14.0199 22.36L12.8599 25.54Z" fill="#111111"/>
</svg>
