<svg width="48" height="48" viewBox="0 0 48 48" fill="none" xmlns="http://www.w3.org/2000/svg">
<path d="M5.20014 21.18L16.7601 9.60003L20.1401 13C19.6601 14.7 20.4401 16.56 22.0001 17.46V28.54C20.8001 29.22 20.0001 30.52 20.0001 32C20.0001 33.0609 20.4215 34.0783 21.1717 34.8284C21.9218 35.5786 22.9392 36 24.0001 36C25.061 36 26.0784 35.5786 26.8285 34.8284C27.5787 34.0783 28.0001 33.0609 28.0001 32C28.0001 30.52 27.2001 29.22 26.0001 28.54V18.82L30.1401 23C30.0001 23.3 30.0001 23.64 30.0001 24C30.0001 25.0609 30.4215 26.0783 31.1717 26.8284C31.9218 27.5786 32.9392 28 34.0001 28C35.061 28 36.0784 27.5786 36.8285 26.8284C37.5787 26.0783 38.0001 25.0609 38.0001 24C38.0001 22.9391 37.5787 21.9217 36.8285 21.1716C36.0784 20.4214 35.061 20 34.0001 20C33.6401 20 33.3001 20 33.0001 20.14L27.8601 15C28.1084 14.0737 28.0122 13.0887 27.5892 12.228C27.1662 11.3673 26.4452 10.6893 25.5601 10.32C24.7001 10 23.8001 9.92003 23.0001 10.14L19.6001 6.76002L21.1801 5.20001C22.7401 3.62001 25.2601 3.62001 26.8201 5.20001L42.8001 21.18C44.3801 22.74 44.3801 25.26 42.8001 26.82L26.8201 42.8C25.2601 44.38 22.7401 44.38 21.1801 42.8L5.20014 26.82C3.62014 25.26 3.62014 22.74 5.20014 21.18Z" fill="#111111"/>
</svg>
