<svg width="48" height="48" viewBox="0 0 48 48" fill="none" xmlns="http://www.w3.org/2000/svg">
<g clip-path="url(#clip0_449_4)">
<path d="M36 1.5H12C6.20101 1.5 1.5 6.20101 1.5 12V36C1.5 41.799 6.20101 46.5 12 46.5H36C41.799 46.5 46.5 41.799 46.5 36V12C46.5 6.20101 41.799 1.5 36 1.5Z" fill="white" stroke="#111111" stroke-width="3"/>
<path d="M31.5393 12.2624H26.6049C26.4286 11.7105 26.0814 11.2288 25.6135 10.8871C25.1456 10.5454 24.5811 10.3612 24.0017 10.3612C23.4223 10.3612 22.8579 10.5454 22.3899 10.8871C21.922 11.2288 21.5748 11.7105 21.3985 12.2624H16.4609C15.5274 12.2624 14.632 12.6333 13.9719 13.2934C13.3118 13.9535 12.9409 14.8489 12.9409 15.7824V34.1216C12.9409 35.0552 13.3118 35.9505 13.9719 36.6106C14.632 37.2708 15.5274 37.6416 16.4609 37.6416H31.5393C32.4729 37.6416 33.3682 37.2708 34.0283 36.6106C34.6885 35.9505 35.0593 35.0552 35.0593 34.1216V15.7824C35.0593 14.8489 34.6885 13.9535 34.0283 13.2934C33.3682 12.6333 32.4729 12.2624 31.5393 12.2624ZM21.6449 12.9024C21.7193 12.9041 21.792 12.8797 21.8504 12.8336C21.9088 12.7874 21.9493 12.7224 21.9649 12.6496C22.0666 12.1829 22.3249 11.7651 22.6969 11.4655C23.0688 11.1658 23.5321 11.0025 24.0097 11.0025C24.4873 11.0025 24.9506 11.1658 25.3226 11.4655C25.6945 11.7651 25.9528 12.1829 26.0545 12.6496C26.0701 12.7224 26.1106 12.7874 26.169 12.8336C26.2274 12.8797 26.3001 12.9041 26.3745 12.9024H28.0961V14.9984C28.0961 15.253 27.995 15.4972 27.8149 15.6772C27.6349 15.8573 27.3907 15.9584 27.1361 15.9584H20.8801C20.6255 15.9584 20.3813 15.8573 20.2013 15.6772C20.0213 15.4972 19.9201 15.253 19.9201 14.9984V12.9024H21.6449ZM34.4193 34.1216C34.4193 34.8854 34.1159 35.618 33.5758 36.1581C33.0357 36.6982 32.3031 37.0016 31.5393 37.0016H16.4609C15.6971 37.0016 14.9646 36.6982 14.4245 36.1581C13.8843 35.618 13.5809 34.8854 13.5809 34.1216V15.7824C13.5809 15.0186 13.8843 14.2861 14.4245 13.7459C14.9646 13.2058 15.6971 12.9024 16.4609 12.9024H19.2801V14.9984C19.2801 15.4228 19.4487 15.8297 19.7487 16.1298C20.0488 16.4298 20.4558 16.5984 20.8801 16.5984H27.1201C27.5445 16.5984 27.9514 16.4298 28.2515 16.1298C28.5515 15.8297 28.7201 15.4228 28.7201 14.9984V12.9024H31.5393C32.3031 12.9024 33.0357 13.2058 33.5758 13.7459C34.1159 14.2861 34.4193 15.0186 34.4193 15.7824V34.1216Z" fill="#111111" stroke="black"/>
<path d="M30.912 22.6944H25.28C25.1951 22.6944 25.1137 22.7281 25.0537 22.7881C24.9937 22.8481 24.96 22.9295 24.96 23.0144C24.96 23.0993 24.9937 23.1807 25.0537 23.2407C25.1137 23.3007 25.1951 23.3344 25.28 23.3344H30.912C30.9968 23.3344 31.0782 23.3007 31.1382 23.2407C31.1982 23.1807 31.232 23.0993 31.232 23.0144C31.232 22.9295 31.1982 22.8481 31.1382 22.7881C31.0782 22.7281 30.9968 22.6944 30.912 22.6944Z" fill="#111111" stroke="black"/>
<path d="M22.912 22.6944H17.28C17.1951 22.6944 17.1137 22.7281 17.0537 22.7881C16.9937 22.8481 16.96 22.9295 16.96 23.0144C16.96 23.0993 16.9937 23.1807 17.0537 23.2407C17.1137 23.3007 17.1951 23.3344 17.28 23.3344H22.912C22.9968 23.3344 23.0782 23.3007 23.1382 23.2407C23.1982 23.1807 23.232 23.0993 23.232 23.0144C23.232 22.9295 23.1982 22.8481 23.1382 22.7881C23.0782 22.7281 22.9968 22.6944 22.912 22.6944Z" fill="#111111"/>
<path d="M22.912 22.6944H17.28C17.1951 22.6944 17.1137 22.7281 17.0537 22.7881C16.9937 22.8481 16.96 22.9295 16.96 23.0144C16.96 23.0993 16.9937 23.1807 17.0537 23.2407C17.1137 23.3007 17.1951 23.3344 17.28 23.3344H22.912C22.9968 23.3344 23.0782 23.3007 23.1382 23.2407C23.1982 23.1807 23.232 23.0993 23.232 23.0144C23.232 22.9295 23.1982 22.8481 23.1382 22.7881C23.0782 22.7281 22.9968 22.6944 22.912 22.6944Z" fill="#111111" stroke="black"/>
<path d="M30.7522 30.2368H25.1042C25.0193 30.2368 24.9379 30.2705 24.8779 30.3305C24.8179 30.3906 24.7842 30.4719 24.7842 30.5568C24.7842 30.6417 24.8179 30.7231 24.8779 30.7831C24.9379 30.8431 25.0193 30.8768 25.1042 30.8768H30.7522C30.837 30.8768 30.9184 30.8431 30.9785 30.7831C31.0385 30.7231 31.0722 30.6417 31.0722 30.5568C31.0722 30.4719 31.0385 30.3906 30.9785 30.3305C30.9184 30.2705 30.837 30.2368 30.7522 30.2368Z" fill="#111111" stroke="black"/>
<path d="M22.7522 30.2368H17.1042C17.0193 30.2368 16.9379 30.2705 16.8779 30.3305C16.8179 30.3906 16.7842 30.4719 16.7842 30.5568C16.7842 30.6417 16.8179 30.7231 16.8779 30.7831C16.9379 30.8431 17.0193 30.8768 17.1042 30.8768H22.7522C22.837 30.8768 22.9184 30.8431 22.9785 30.7831C23.0385 30.7231 23.0722 30.6417 23.0722 30.5568C23.0722 30.4719 23.0385 30.3906 22.9785 30.3305C22.9184 30.2705 22.837 30.2368 22.7522 30.2368Z" fill="#111111"/>
<path d="M22.7522 30.2368H17.1042C17.0193 30.2368 16.9379 30.2705 16.8779 30.3305C16.8179 30.3906 16.7842 30.4719 16.7842 30.5568C16.7842 30.6417 16.8179 30.7231 16.8779 30.7831C16.9379 30.8431 17.0193 30.8768 17.1042 30.8768H22.7522C22.837 30.8768 22.9184 30.8431 22.9785 30.7831C23.0385 30.7231 23.0722 30.6417 23.0722 30.5568C23.0722 30.4719 23.0385 30.3906 22.9785 30.3305C22.9184 30.2705 22.837 30.2368 22.7522 30.2368Z" fill="#111111" stroke="black"/>
</g>
<defs>
<clipPath id="clip0_449_4">
<rect width="48" height="48" fill="white"/>
</clipPath>
</defs>
</svg>
