<svg width="48" height="48" viewBox="0 0 48 48" fill="none" xmlns="http://www.w3.org/2000/svg">
<g clip-path="url(#clip0_451_2)">
<path d="M36.75 0H11.25C5.0368 0 0 5.0368 0 11.25V36.75C0 42.9632 5.0368 48 11.25 48H36.75C42.9632 48 48 42.9632 48 36.75V11.25C48 5.0368 42.9632 0 36.75 0Z" fill="#111111"/>
<path d="M31.2336 31.0498C32.6175 30.9065 33.6673 29.7135 33.6195 28.2819C33.5719 26.8503 32.3788 25.7051 30.9473 25.7051H30.8518C29.3725 25.7527 28.2272 26.9934 28.2748 28.4728C28.3226 29.1886 28.609 29.8089 29.0383 30.2385C27.4159 33.4357 24.9345 35.774 21.2123 37.7306C18.6831 39.0667 16.0585 39.5439 13.4338 39.21C11.2864 38.9236 9.61633 37.9691 8.56633 36.3945C7.03933 34.0562 6.89627 31.527 8.18458 28.9978C9.09133 27.1843 10.5229 25.8482 11.4296 25.1801C11.2388 24.5598 10.9525 23.5098 10.8092 22.7463C3.88989 27.7571 4.60558 34.5333 6.7052 37.7306C8.2802 40.1165 11.4773 41.5959 15.0086 41.5959C15.963 41.5959 16.9174 41.5005 17.8718 41.2618C23.9801 40.0689 28.609 36.4421 31.2336 31.0498Z" fill="white"/>
<path d="M39.632 25.1325C36.0054 20.8852 30.6607 18.5471 24.5525 18.5471H23.789C23.3595 17.688 22.4527 17.1154 21.4507 17.1154H21.3553C19.8759 17.1632 18.7307 18.4039 18.7783 19.8832C18.8261 21.3148 20.019 22.46 21.4507 22.46H21.5462C22.596 22.4124 23.5027 21.7444 23.8845 20.8376H24.7434C28.37 20.8376 31.806 21.8874 34.9078 23.9394C37.2937 25.5142 39.0118 27.5662 39.9662 30.0476C40.7775 32.0518 40.7297 34.0084 39.8707 35.6786C38.5346 38.2078 36.2917 39.5917 33.333 39.5917C31.4242 39.5917 29.6109 39.0191 28.6564 38.5895C28.1315 39.0667 27.1772 39.8302 26.5091 40.3074C28.5609 41.2618 30.6607 41.7868 32.6649 41.7868C37.2461 41.7868 40.6342 39.2576 41.9227 36.7284C43.3067 33.9607 43.2112 29.1887 39.632 25.1325Z" fill="white"/>
<path d="M15.3906 31.8611C15.4384 33.2927 16.6313 34.4379 18.063 34.4379H18.1584C19.6376 34.3901 20.7831 33.1494 20.7353 31.6701C20.6876 30.2385 19.4946 29.0933 18.063 29.0933H17.9674C17.8721 29.0933 17.7289 29.0933 17.6336 29.1411C15.6769 25.896 14.8658 22.3646 15.1521 18.5471C15.3429 15.684 16.2973 13.2024 17.9676 11.1502C19.3513 9.38475 22.0238 8.52581 23.8371 8.478C28.8954 8.38256 31.0429 14.6816 31.1859 17.2108C31.8064 17.3541 32.8562 17.6882 33.5721 17.9267C32.9994 10.1963 28.2274 6.1875 23.6462 6.1875C19.3513 6.1875 15.3906 9.28931 13.8158 13.8705C11.6207 19.9787 13.0523 25.8482 15.7245 30.4772C15.486 30.8111 15.3428 31.3361 15.3906 31.8611Z" fill="white"/>
</g>
<defs>
<clipPath id="clip0_451_2">
<rect width="48" height="48" fill="white"/>
</clipPath>
</defs>
</svg>
