<svg width="48" height="48" viewBox="0 0 48 48" fill="none" xmlns="http://www.w3.org/2000/svg">
<g clip-path="url(#clip0_449_98)">
<path d="M12.0367 23.0479C11.8492 25.4087 13.9233 27.1476 15.3387 27.1476C16.7561 27.0815 22.2764 22.4295 22.2764 22.4295C24.8727 19.1459 24.884 17.6858 24.884 16.5383C24.6674 11.4717 15.4368 19.1886 12.0367 23.0479ZM34.871 21.0868C36.1239 18.435 34.4382 15.4897 30.7715 18.0767C27.8577 19.9286 24.0855 23.7384 22.2802 25.2298C21.4428 26.9212 23.5655 31.5627 26.9292 29.112C30.9052 26.2234 33.8086 23.5072 34.871 21.0868ZM38.2835 5.04506L39.0909 0H48V9.20944L44.735 9.24844L40.8036 22.5641C41.0483 27.2636 38.6651 27.3401 38.3607 29.4965C37.5956 34.9162 31.5348 39.3507 29.2176 39.3507C27.6721 39.3059 26.5423 37.5346 26.1628 35.9911C30.5203 31.1714 36.3801 27.3838 36.3801 27.3838C36.746 24.8491 35.9418 24.0421 38.6463 21.8822L41.227 8.313C39.023 6.85753 37.9945 6.88012 38.2835 5.04506ZM20.8941 27.5169C23.1536 32.0698 26.4185 32.1885 31.4803 26.392C31.6006 26.9279 31.7323 27.4894 31.4906 28.8375C21.1935 38.0474 11.4951 47.0109 8.54297 48H0V45.7087C1.38937 43.782 12.792 34.3771 20.8941 27.5169ZM36.1123 36.3323C35.6487 40.2731 32.0558 43.7216 27.2546 48H12.0386L24.8662 37.1948C27.0806 42.2344 31.0138 41.5043 36.1124 36.3323H36.1123ZM18.1181 27.3872L0 42.8301V32.811L10.6622 24.1312C11.2326 27.362 14.7267 30.2068 18.1181 27.3874V27.3872Z" fill="#111111"/>
</g>
<defs>
<clipPath id="clip0_449_98">
<rect width="48" height="48" fill="white"/>
</clipPath>
</defs>
</svg>
